<?xml version="1.0" encoding="utf-8"?>
<!-- Generator: Adobe Illustrator 18.0.0, SVG Export Plug-In . SVG Version: 6.00 Build 0)  -->
<!DOCTYPE svg PUBLIC "-//W3C//DTD SVG 1.1//EN" "http://www.w3.org/Graphics/SVG/1.1/DTD/svg11.dtd">
<svg version="1.1" id="Layer_1" xmlns="http://www.w3.org/2000/svg"  x="0px" y="0px"
	 viewBox="0 0 64 64" enable-background="new 0 0 64 64" xml:space="preserve">
<g>
	<g>
		<g>
			<path fill="#A1C3E2" d="M32,0c17.7,0,32,14.3,32,32S49.7,64,32,64S0,49.7,0,32S14.3,0,32,0z"/>
		</g>
	</g>
	<g>
		<g>
			<path fill="#E1E9FF" d="M43,47.7l-3-9.4c-0.2-0.5-0.7-0.8-1.3-0.6c-0.5,0.2-0.8,0.7-0.7,1.3l1.7,5.4H25.8l1.4-5.1
				c0.1-0.5-0.2-1.1-0.7-1.2c-0.5-0.1-1.1,0.2-1.2,0.7l-3.9,14c-0.1,0.5,0.2,1.1,0.7,1.2c0.1,0,0.2,0,0.3,0c0.4,0,0.8-0.3,1-0.7
				l1.9-6.9h15.1l0.6,2c0.1,0.4,0.5,0.7,1,0.7c0.1,0,0.2,0,0.3,0C42.8,48.8,43.1,48.2,43,47.7z"/>
		</g>
	</g>
	<g>
		<g>
			<circle fill="#52577A" cx="42.6" cy="50.6" r="3.4"/>
		</g>
	</g>
	<g>
		<g>
			<g>
				<path fill="#E1E9FF" d="M42.6,52.6c-1.1,0-2-0.9-2-2s0.9-2,2-2s2,0.9,2,2S43.7,52.6,42.6,52.6z M42.6,49.6c-0.6,0-1,0.4-1,1
					s0.4,1,1,1s1-0.4,1-1S43.2,49.6,42.6,49.6z"/>
			</g>
		</g>
	</g>
	<g>
		<g>
			<path fill="#52577A" d="M47.9,25c0,8.5-6.7,15.5-15,15.5h0c-8.2,0-15-7-15-15.5H47.9z"/>
		</g>
	</g>
	<g>
		<g>
			<path fill="#5C6389" d="M43.2,27c0,6.1-4.5,11.1-10.2,11.7c0.4,0,0.8,0.1,1.1,0.1h0c6.3,0,11.4-5.3,11.4-11.8H43.2z"/>
		</g>
	</g>
	<g>
		<g>
			<g>
				<path fill="#384266" d="M21,28.5h-4c-0.4,0-0.8-0.3-0.8-0.8S16.6,27,17,27h4c0.4,0,0.8,0.3,0.8,0.8S21.4,28.5,21,28.5z"/>
			</g>
		</g>
	</g>
	<g>
		<g>
			<g>
				<path fill="#384266" d="M49,28.5h-4c-0.4,0-0.8-0.3-0.8-0.8S44.6,27,45,27h4c0.4,0,0.8,0.3,0.8,0.8S49.4,28.5,49,28.5z"/>
			</g>
		</g>
	</g>
	<g>
		<g>
			<ellipse fill="#E1E9FF" cx="33" cy="25" rx="15" ry="1"/>
		</g>
	</g>
	<g>
		<g>
			<path fill="#C17667" d="M26.4,25H21c-0.5,0-1-0.4-1-1v0c0-0.5,0.4-1,1-1h5.4c0.5,0,1,0.4,1,1v0C27.4,24.6,27,25,26.4,25z"/>
		</g>
	</g>
	<g>
		<g>
			<path fill="#C17667" d="M35.7,25h-5.4c-0.5,0-1-0.4-1-1v0c0-0.5,0.4-1,1-1h5.4c0.5,0,1,0.4,1,1v0C36.7,24.6,36.3,25,35.7,25z"/>
		</g>
	</g>
	<g>
		<g>
			<path fill="#C17667" d="M45,25h-5.4c-0.5,0-1-0.4-1-1v0c0-0.5,0.4-1,1-1H45c0.5,0,1,0.4,1,1v0C46,24.6,45.5,25,45,25z"/>
		</g>
	</g>
	<g>
		<g>
			<path fill="#E1E9FF" d="M25.5,11c0,0,0,0.6,0.1,1.3c0.1,0.4,0.2,0.7,0.3,1.1c0.1,0.2,0.1,0.4,0.2,0.6c0.1,0.2,0.1,0.3,0.3,0.6
				l0.2,0.4c0.1,0.1,0.1,0.3,0.2,0.5c0.1,0.3,0.1,0.6,0.1,0.9c0,0.6-0.1,1.1-0.3,1.5c-0.2,0.4-0.5,0.7-0.6,0.9
				c-0.2,0.2-0.3,0.2-0.3,0.2s0-0.6-0.1-1.3c-0.1-0.4-0.2-0.7-0.3-1.1c-0.1-0.2-0.1-0.4-0.2-0.5l-0.1-0.3l-0.2-0.4
				c-0.1-0.2-0.2-0.6-0.3-0.8c-0.1-0.3-0.1-0.6-0.1-0.9c0-0.6,0.1-1.1,0.3-1.5c0.2-0.4,0.5-0.7,0.6-0.9C25.4,11.1,25.5,11,25.5,11z"
				/>
		</g>
	</g>
	<g>
		<g>
			<path fill="#E1E9FF" d="M31.8,6c0,0-0.2,0.9-0.1,2.1c0,0.6,0.1,1.3,0.3,1.9c0.1,0.3,0.2,0.7,0.3,1c0.1,0.4,0.3,0.6,0.5,1l0.3,0.6
				c0.1,0.2,0.2,0.5,0.2,0.7c0.1,0.5,0.2,0.9,0.2,1.4c0,0.9-0.1,1.7-0.4,2.4c-0.2,0.7-0.6,1.1-0.8,1.4C32,18.9,31.8,19,31.8,19
				s0.2-0.9,0.1-2.1c0-0.6-0.1-1.3-0.3-1.9c-0.1-0.3-0.2-0.7-0.3-1l-0.2-0.5l-0.3-0.6l-0.3-0.6c-0.1-0.2-0.1-0.5-0.2-0.7
				c-0.1-0.5-0.2-0.9-0.2-1.4c0-0.9,0.1-1.7,0.4-2.4c0.2-0.7,0.6-1.1,0.8-1.4C31.6,6.1,31.8,6,31.8,6z"/>
		</g>
	</g>
	<g>
		<g>
			<path fill="#E1E9FF" d="M38.5,11c0,0,0,0.6,0.1,1.3c0.1,0.4,0.2,0.7,0.3,1.1c0.1,0.2,0.1,0.4,0.2,0.6c0.1,0.2,0.1,0.3,0.3,0.6
				l0.2,0.4c0.1,0.1,0.1,0.3,0.2,0.5c0.1,0.3,0.1,0.6,0.1,0.9c0,0.6-0.1,1.1-0.3,1.5c-0.2,0.4-0.5,0.7-0.6,0.9
				c-0.2,0.2-0.3,0.2-0.3,0.2s0-0.6-0.1-1.3c-0.1-0.4-0.2-0.7-0.3-1.1c-0.1-0.2-0.1-0.4-0.2-0.5l-0.1-0.3l-0.2-0.4
				c-0.1-0.2-0.2-0.6-0.3-0.8c-0.1-0.3-0.1-0.6-0.1-0.9c0-0.6,0.1-1.1,0.3-1.5c0.2-0.4,0.5-0.7,0.6-0.9C38.4,11.1,38.5,11,38.5,11z"
				/>
		</g>
	</g>
</g>
</svg>
